<svg>
  <symbol id="favorite" width="31" height="24" viewBox="0 0 31 24" fill="none" xmlns="http://www.w3.org/2000/svg">
    <path
      d="M29.537 4.82626C28.5464 2.14006 26.1751 0.38253 23.3492 0.238682C23.338 0.238389 23.3275 0.238037 23.3166 0.238037H22.9019C19.3342 0.238037 16.2697 2.43485 14.9901 5.54661C13.7104 2.43485 10.6459 0.238037 7.0782 0.238037H6.66347C6.65263 0.238037 6.64179 0.23833 6.63095 0.238682C3.8114 0.382237 1.44741 2.14106 0.46227 4.82913C-0.554809 7.60433 0.138478 10.5707 2.26926 12.5697L13.4786 23.1719C13.916 23.5656 14.4692 23.7621 15.0182 23.7621C15.5727 23.7621 16.1226 23.5618 16.5444 23.162L18.2486 21.5538C18.6764 21.126 18.9186 20.562 18.9301 19.9663C18.9415 19.3573 18.7112 18.7846 18.2805 18.3543C18.0314 18.1051 17.6275 18.1051 17.3783 18.3543C17.1292 18.6034 17.1292 19.0073 17.3783 19.2565C17.7602 19.6387 17.7464 20.2512 17.3598 20.6382L15.668 22.2343C15.3059 22.5766 14.7189 22.5715 14.3437 22.234L3.14401 11.6404C1.39099 9.99579 0.8228 7.55429 1.66052 5.26812C2.46449 3.07388 4.38691 1.63633 6.68005 1.51381H7.0782C11.089 1.51381 14.352 4.7768 14.352 8.78758C14.352 9.13979 14.6378 9.42561 14.99 9.42561C15.3422 9.42561 15.628 9.13979 15.628 8.78758C15.628 4.7768 18.891 1.51381 22.9018 1.51381H23.2999C25.6004 1.63697 27.5306 3.07417 28.3396 5.26776C29.1796 7.54561 28.6149 9.98805 26.8532 11.6546L23.2801 15.2277C22.8511 15.6568 22.6146 16.219 22.6146 16.8114C22.6146 17.4038 22.851 17.9659 23.2801 18.395C23.5293 18.6441 23.9332 18.6441 24.1824 18.395C24.4315 18.1458 24.4315 17.7419 24.1824 17.4927C23.9942 17.3045 23.8908 17.0627 23.8908 16.8113C23.8908 16.5599 23.9942 16.3181 24.1824 16.1298L27.7427 12.5692C29.8695 10.5582 30.5567 7.59126 29.537 4.82626Z"
      fill="#33485D" />
  </symbol>
  <symbol id="white" width="30" height="24" viewBox="0 0 30 24" fill="none" xmlns="http://www.w3.org/2000/svg">
    <path
      d="M29.5358 4.58822C28.5452 1.90203 26.1739 0.144493 23.3479 0.000644406C23.3368 0.000351435 23.3263 0 23.3154 0H22.9007C19.333 0 16.2685 2.19681 14.9888 5.30858C13.7092 2.19681 10.6447 0 7.07698 0H6.66225C6.65141 0 6.64057 0.000292841 6.62973 0.000644406C3.81018 0.1442 1.44619 1.90302 0.461049 4.59109C-0.556029 7.36629 0.137257 10.3326 2.26804 12.3316L13.4773 22.9338C13.9147 23.3275 14.4679 23.5241 15.017 23.5241C15.5714 23.5241 16.1214 23.3237 16.5432 22.924L18.2474 21.3158C18.6752 20.888 18.9173 20.3239 18.9288 19.7283C18.9403 19.1192 18.71 18.5466 18.2793 18.1162C18.0302 17.8671 17.6263 17.8671 17.3771 18.1162C17.1279 18.3654 17.1279 18.7692 17.3771 19.0184C17.7589 19.4007 17.7452 20.0132 17.3586 20.4002L15.6668 21.9963C15.3047 22.3386 14.7177 22.3335 14.3425 21.996L3.14279 11.4023C1.38977 9.75775 0.821579 7.31625 1.6593 5.03008C2.46327 2.83584 4.38569 1.39829 6.67883 1.27577H7.07698C11.0878 1.27577 14.3507 4.53877 14.3507 8.54954C14.3507 8.90175 14.6366 9.18757 14.9888 9.18757C15.341 9.18757 15.6268 8.90175 15.6268 8.54954C15.6268 4.53877 18.8898 1.27577 22.9006 1.27577H23.2987C25.5992 1.39894 27.5293 2.83614 28.3384 5.02973C29.1784 7.30758 28.6137 9.75002 26.852 11.4166L23.2789 14.9897C22.8498 15.4188 22.6134 15.9809 22.6134 16.5733C22.6134 17.1658 22.8498 17.7279 23.2789 18.1569C23.5281 18.4061 23.932 18.4061 24.1812 18.1569C24.4303 17.9078 24.4303 17.5039 24.1812 17.2547C23.993 17.0665 23.8896 16.8247 23.8896 16.5733C23.8896 16.3218 23.993 16.0801 24.1812 15.8918L27.7415 12.3312C29.8683 10.3202 30.5554 7.35322 29.5358 4.58822Z"
      fill="white" />
  </symbol>
  <symbol id="check" width="21" height="20" viewBox="0 0 21 20" fill="none" xmlns="http://www.w3.org/2000/svg">
    <g clip-path="url(#clip0)">
      <path
        d="M10.9652 11.9805L19.1668 2.97832L20.2496 3.96481L11.0404 14.0729L6.01997 9.30038L7.02934 8.23872L10.9652 11.9805ZM19.6808 6.74023L18.5386 7.99793C18.7044 8.63468 18.7927 9.30233 18.7927 9.99023C18.7927 14.3518 15.2441 17.9004 10.8826 17.9004C6.521 17.9004 2.97241 14.3518 2.97241 9.99023C2.97241 5.62866 6.521 2.08008 10.8826 2.08008C12.9031 2.08008 14.7488 2.84203 16.1486 4.09309L17.1361 3.00579C15.4145 1.46072 13.2136 0.615234 10.8826 0.615234C8.37849 0.615234 6.02409 1.59039 4.25346 3.36113C2.48272 5.13176 1.50757 7.48615 1.50757 9.99023C1.50757 12.4943 2.48272 14.8487 4.25346 16.6193C6.02409 18.3901 8.37849 19.3652 10.8826 19.3652C13.3867 19.3652 15.741 18.3901 17.5117 16.6193C19.2824 14.8487 20.2576 12.4943 20.2576 9.99023C20.2576 8.86322 20.0595 7.76688 19.6808 6.74023Z"
        fill="#219653" />
    </g>
    <defs>
      <clipPath id="clip0">
        <rect width="20" height="20" fill="white" transform="translate(0.892334)" />
      </clipPath>
    </defs>
  </symbol>
  <symbol id="check-not-av" width="21" height="20" viewBox="0 0 21 20" fill="none" xmlns="http://www.w3.org/2000/svg">
    <g clip-path="url(#clip0)">
      <path
        d="M10.9652 11.9805L19.1668 2.97832L20.2496 3.96481L11.0404 14.0729L6.01997 9.30038L7.02934 8.23872L10.9652 11.9805ZM19.6808 6.74023L18.5386 7.99793C18.7044 8.63468 18.7927 9.30233 18.7927 9.99023C18.7927 14.3518 15.2441 17.9004 10.8826 17.9004C6.521 17.9004 2.97241 14.3518 2.97241 9.99023C2.97241 5.62866 6.521 2.08008 10.8826 2.08008C12.9031 2.08008 14.7488 2.84203 16.1486 4.09309L17.1361 3.00579C15.4145 1.46072 13.2136 0.615234 10.8826 0.615234C8.37849 0.615234 6.02409 1.59039 4.25346 3.36113C2.48272 5.13176 1.50757 7.48615 1.50757 9.99023C1.50757 12.4943 2.48272 14.8487 4.25346 16.6193C6.02409 18.3901 8.37849 19.3652 10.8826 19.3652C13.3867 19.3652 15.741 18.3901 17.5117 16.6193C19.2824 14.8487 20.2576 12.4943 20.2576 9.99023C20.2576 8.86322 20.0595 7.76688 19.6808 6.74023Z"
        fill="#00000080" />
    </g>
    <defs>
      <clipPath id="clip0">
        <rect width="20" height="20" fill="white" transform="translate(0.892334)" />
      </clipPath>
    </defs>
  </symbol>
  <symbol id="arrow" width="16" height="29" viewBox="0 0 16 29" fill="none" xmlns="http://www.w3.org/2000/svg">
    <path fill-rule="evenodd" clip-rule="evenodd"
      d="M13.364 0.722029C13.7545 0.331528 14.3877 0.331528 14.7782 0.722029C15.1687 1.11253 15.1687 1.74573 14.7782 2.13623L2.41422 14.5002L14.7782 26.8642C15.1687 27.2547 15.1687 27.8879 14.7782 28.2784C14.3877 28.6689 13.7545 28.6689 13.364 28.2784L0.292898 15.2073C-0.0976235 14.8168 -0.0976235 14.1836 0.292898 13.7931L13.364 0.722029Z"
      fill="#33485D" />
  </symbol>
  <symbol id="compare" width="30" height="30" viewBox="0 0 30 30" fill="none" xmlns="http://www.w3.org/2000/svg">
    <g clip-path="url(#clip0)">
      <path
        d="M29.5545 17.632L26.1326 10.3025L27.6097 10.7262C27.9341 10.8193 28.2726 10.6319 28.3655 10.3073C28.4586 9.98287 28.2712 9.64461 27.9468 9.55151L17.6759 6.6041C17.678 6.56018 17.6792 6.51625 17.6792 6.47209C17.6794 5.2525 16.8561 4.18664 15.6759 3.87941C14.4957 3.57195 13.257 4.1007 12.6624 5.16537L2.39049 2.21819C2.06608 2.1251 1.72758 2.31272 1.63448 2.63714C1.54162 2.96155 1.72901 3.29981 2.05342 3.39291L4.08059 3.97466L0.409396 11.8379C0.164475 11.9236 0.000239036 12.1547 3.21511e-07 12.4144C-0.000715825 14.3984 1.19501 16.1868 3.02857 16.9443C4.86214 17.7019 6.97166 17.2789 8.37148 15.8732C9.30414 14.9639 9.83098 13.7171 9.83337 12.4144C9.83337 12.1408 9.65123 11.9007 9.38793 11.8265L5.97598 4.51869L12.3244 6.34008C12.3222 6.384 12.321 6.42793 12.321 6.47233C12.3229 7.71579 13.1787 8.79502 14.389 9.08005V23.9401C12.2929 23.9401 10.5306 23.9082 10.2335 23.9694C9.09932 24.2081 8.28507 25.2055 8.27791 26.3647V27.2202C8.28817 27.5652 8.56818 27.8411 8.91336 27.8461H21.0869C21.432 27.8411 21.712 27.5652 21.7223 27.2202V26.3647C21.7152 25.2055 20.9009 24.2081 19.7668 23.9694C19.5612 23.9082 17.6174 23.9401 15.6112 23.9401V9.08005C16.3436 8.90698 16.9697 8.4348 17.3378 7.77858L24.2548 9.76349L20.576 17.6435C20.3308 17.7292 20.1666 17.9602 20.1664 18.2197C20.1659 20.2037 21.3616 21.9921 23.1952 22.7496C25.0287 23.5072 27.138 23.0845 28.5379 21.6787C29.4705 20.7692 29.9976 19.5224 30 18.2197C29.9997 17.9461 29.8178 17.7062 29.5545 17.632ZM4.90129 5.07632L8.02821 11.7739H1.7746L4.90129 5.07632ZM4.90129 16.0639C3.10138 16.0744 1.56191 14.7729 1.27307 12.9962H8.55744C8.2464 14.7715 6.70382 16.066 4.90129 16.0639ZM20.5001 26.3647V26.6239H9.50012V26.3647C9.50012 25.6908 10.073 25.1572 10.7467 25.1572H19.2535C19.9272 25.1572 20.5001 25.6908 20.5001 26.3647ZM15.0001 7.92897C14.3787 7.92944 13.8254 7.53604 13.6218 6.94904C13.4181 6.36204 13.6089 5.71059 14.0968 5.32602C14.585 4.94145 15.2632 4.90851 15.7862 5.24414C16.3092 5.57954 16.562 6.2095 16.4162 6.81345C16.4006 6.85212 16.3892 6.89199 16.3818 6.93281C16.1829 7.52721 15.6267 7.92825 15.0001 7.92897ZM28.1948 17.5795H21.9412L25.0679 10.8819L28.1948 17.5795ZM25.0679 21.8694C23.268 21.8799 21.7285 20.5785 21.4397 18.8017H28.7241C28.413 20.577 26.8704 21.8716 25.0679 21.8694Z"
        fill="#33485D" />
    </g>
    <defs>
      <clipPath id="clip0">
        <rect width="30" height="30" fill="white" />
      </clipPath>
    </defs>
  </symbol>
  <symbol id="phone" width="30" height="30" viewBox="0 0 30 30" fill="none" xmlns="http://www.w3.org/2000/svg">
    <path
      d="M29.2129 23.1434L23.1408 19.094C22.3702 18.5843 21.3373 18.752 20.7676 19.4795L18.9989 21.7536C18.7715 22.0533 18.3583 22.1403 18.0295 21.9576L17.6931 21.7721C16.5777 21.1642 15.1899 20.4073 12.3939 17.6102C9.59777 14.8132 8.83939 13.4243 8.23145 12.3111L8.04696 11.9746C7.86178 11.6458 7.94708 11.2309 8.24691 11.0017L10.5195 9.23352C11.2467 8.66378 11.4147 7.63116 10.9055 6.86036L6.85611 0.788251C6.33429 0.00332834 5.28737 -0.232301 4.47954 0.253311L1.94041 1.77857C1.1426 2.2476 0.557275 3.00722 0.307176 3.89824C-0.607161 7.22974 0.0806853 12.9794 8.55044 21.4501C15.288 28.1871 20.3037 29.9989 23.7512 29.9989C24.5446 30.0023 25.3349 29.899 26.1009 29.6919C26.9921 29.4421 27.7518 28.8568 28.2206 28.0587L29.7473 25.5211C30.2337 24.7131 29.9981 23.6655 29.2129 23.1434ZM28.8859 25.0081L27.3626 27.5473C27.0261 28.1233 26.4796 28.5468 25.8378 28.7291C22.7623 29.5735 17.3891 28.8741 9.2578 20.7428C1.12649 12.6115 0.427158 7.23876 1.27154 4.16275C1.4541 3.52019 1.87813 2.97306 2.45485 2.63596L4.99398 1.11269C5.34449 0.901789 5.79888 1.00402 6.02531 1.34463L8.22501 4.64713L10.0713 7.41621C10.2924 7.75056 10.2197 8.19867 9.90429 8.44608L7.63113 10.2143C6.93936 10.7433 6.74181 11.7004 7.16772 12.46L7.34822 12.7879C7.98715 13.9598 8.7815 15.4175 11.6816 18.3171C14.5817 21.2167 16.039 22.0111 17.2103 22.65L17.5387 22.8309C18.2982 23.2568 19.2554 23.0593 19.7844 22.3675L21.5526 20.0944C21.8 19.7791 22.248 19.7065 22.5824 19.9274L28.654 23.9768C28.9949 24.2031 29.0971 24.6577 28.8859 25.0081Z"
      fill="#33485D" />
    <path
      d="M16.9992 5.00262C21.6907 5.00783 25.4927 8.80983 25.4979 13.5014C25.4979 13.7775 25.7217 14.0013 25.9978 14.0013C26.2739 14.0013 26.4977 13.7775 26.4977 13.5014C26.4919 8.25784 22.2427 4.00855 16.9992 4.00281C16.7231 4.00281 16.4993 4.2266 16.4993 4.50271C16.4993 4.77883 16.7231 5.00262 16.9992 5.00262Z"
      fill="#33485D" />
    <path
      d="M16.9992 8.00225C20.0348 8.00583 22.4948 10.4658 22.4984 13.5015C22.4984 13.7776 22.7222 14.0014 22.9983 14.0014C23.2744 14.0014 23.4982 13.7776 23.4982 13.5015C23.494 9.91383 20.5867 7.00654 16.9992 7.00244C16.7231 7.00244 16.4993 7.22624 16.4993 7.50235C16.4993 7.77846 16.7231 8.00225 16.9992 8.00225Z"
      fill="#33485D" />
    <path
      d="M16.9992 11.0018C18.379 11.0034 19.4971 12.1216 19.4988 13.5014C19.4988 13.7775 19.7227 14.0013 19.9987 14.0013C20.2748 14.0013 20.4986 13.7775 20.4986 13.5014C20.4964 11.5696 18.931 10.0041 16.9992 10.002C16.7231 10.002 16.4993 10.2257 16.4993 10.5019C16.4993 10.778 16.7231 11.0018 16.9992 11.0018Z"
      fill="#33485D" />
  </symbol>
  <symbol id="cart" width="30" height="30" viewBox="0 0 30 30" fill="none" xmlns="http://www.w3.org/2000/svg">
    <g clip-path="url(#clip0)">
      <path
        d="M29.8751 5.24996C29.7501 5.12498 29.6251 4.99994 29.3751 4.99994H5.62506L5.00004 1.74998C5.00004 1.49996 4.62504 1.25 4.37502 1.25H0.625022C0.250081 1.24994 6.10352e-05 1.49996 6.10352e-05 1.87496C6.10352e-05 2.24996 0.250081 2.49998 0.625081 2.49998H3.8751L6.8751 17.75C7.2501 19.75 9.1251 21.25 11.1251 21.25H25.5001C25.8751 21.25 26.1251 21 26.1251 20.625C26.1251 20.25 25.8751 20 25.5001 20H11.2501C10.25 20 9.25008 19.5 8.75004 18.6249L27.0001 16.125C27.2501 16.125 27.5 15.875 27.5 15.625L30.0001 5.62496C30.0001 5.62496 30.0001 5.37494 29.8751 5.24996ZM26.375 15L8.12502 17.375L5.87502 6.12495H28.5001L26.375 15Z"
        fill="white" />
      <path
        d="M10.625 22.5C8.87508 22.5 7.50006 23.875 7.50006 25.625C7.50006 27.375 8.87508 28.75 10.625 28.75C12.3751 28.75 13.75 27.3749 13.75 25.625C13.7501 23.875 12.3751 22.5 10.625 22.5ZM10.625 27.5C9.62502 27.5 8.75004 26.6249 8.75004 25.625C8.75004 24.625 9.62502 23.75 10.625 23.75C11.6251 23.75 12.5 24.625 12.5 25.625C12.5 26.6249 11.6251 27.5 10.625 27.5Z"
        fill="white" />
      <path
        d="M23.1251 22.5C21.375 22.5 20.0001 23.875 20.0001 25.625C20.0001 27.375 21.3751 28.75 23.1251 28.75C24.8751 28.75 26.25 27.3749 26.25 25.625C26.25 23.875 24.875 22.5 23.1251 22.5ZM23.1251 27.5C22.125 27.5 21.2501 26.6249 21.2501 25.625C21.2501 24.625 22.125 23.75 23.1251 23.75C24.1251 23.75 25.0001 24.625 25.0001 25.625C25.0001 26.6249 24.125 27.5 23.1251 27.5Z"
        fill="white" />
    </g>
    <defs>
      <clipPath id="clip0">
        <rect width="30" height="30" fill="white" />
      </clipPath>
    </defs>
  </symbol>
  <symbol id="small-arrow" width="9" height="6" viewBox="0 0 9 6" fill="none" xmlns="http://www.w3.org/2000/svg">
    <path fill-rule="evenodd" clip-rule="evenodd"
      d="M8.7227 1.08634C8.9712 0.837824 8.9712 0.434902 8.7227 0.186387C8.4742 -0.0621288 8.07125 -0.0621288 7.82275 0.186387L4.45455 3.55459L1.08634 0.186387C0.837824 -0.0621288 0.434902 -0.0621288 0.186387 0.186387C-0.0621289 0.434902 -0.0621289 0.837824 0.186387 1.08634L4.00457 4.90452C4.25309 5.15304 4.65601 5.15304 4.90452 4.90452L8.7227 1.08634Z"
      fill="#5C6D7D" />
  </symbol>
  <symbol id="characteristics-arrow" width="9" height="6" viewBox="0 0 9 6" fill="none"
    xmlns="http://www.w3.org/2000/svg">
    <path fill-rule="evenodd" clip-rule="evenodd"
      d="M8.7227 1.08634C8.9712 0.837824 8.9712 0.434902 8.7227 0.186387C8.4742 -0.0621288 8.07125 -0.0621288 7.82275 0.186387L4.45455 3.55459L1.08634 0.186387C0.837824 -0.0621288 0.434902 -0.0621288 0.186387 0.186387C-0.0621289 0.434902 -0.0621289 0.837824 0.186387 1.08634L4.00457 4.90452C4.25309 5.15304 4.65601 5.15304 4.90452 4.90452L8.7227 1.08634Z"
      fill="#33485D" />
  </symbol>
  <symbol id="guarantee" width="20" height="20" viewBox="0 0 20 20" fill="none" xmlns="http://www.w3.org/2000/svg">
    <g clip-path="url(#clip0)">
      <path
        d="M18.4957 5.42651L18.4951 5.41094C18.4864 5.21883 18.4806 5.01559 18.4771 4.78945C18.4607 3.6867 17.5841 2.77454 16.4812 2.71289C14.1817 2.58456 12.4029 1.83475 10.8829 0.353278L10.87 0.340919C10.3742 -0.11364 9.62637 -0.11364 9.13046 0.340919L9.11749 0.353278C7.59757 1.83475 5.8187 2.58456 3.51921 2.71304C2.41646 2.77454 1.53969 3.6867 1.52337 4.78961C1.52001 5.01421 1.51406 5.21746 1.50536 5.41094L1.50444 5.44711C1.45974 7.79192 1.40419 10.7102 2.38045 13.3589C2.91725 14.8155 3.73024 16.0817 4.79667 17.1225C6.01127 18.3078 7.60214 19.2488 9.52505 19.9193C9.58761 19.9411 9.65261 19.9588 9.71884 19.9721C9.81222 19.9907 9.90621 20 10.0002 20C10.0942 20 10.1883 19.9907 10.2816 19.9721C10.3478 19.9588 10.4133 19.9409 10.4761 19.919C12.3967 19.2473 13.9859 18.3058 15.1995 17.1207C16.2654 16.0796 17.0784 14.8131 17.6157 13.3562C18.5956 10.6995 18.5402 7.77574 18.4957 5.42651ZM16.5146 12.9501C15.485 15.7419 13.3831 17.6591 10.0889 18.8112C10.0771 18.8151 10.0646 18.8187 10.0516 18.8212C10.0176 18.828 9.98297 18.828 9.94848 18.8211C9.93566 18.8185 9.92315 18.8151 9.91156 18.8112C6.61384 17.6613 4.51057 15.7451 3.48167 12.9532C2.58186 10.5116 2.63283 7.83281 2.67784 5.46954L2.67815 5.45641C2.6873 5.25332 2.69341 5.04061 2.69676 4.80685C2.70409 4.3172 3.0941 3.91208 3.58467 3.88476C4.88594 3.81213 6.02912 3.56067 7.07953 3.11603C8.12857 2.672 9.06027 2.04608 9.92758 1.20258C9.97167 1.16535 10.0289 1.1652 10.0728 1.20258C10.9403 2.04608 11.872 2.672 12.9209 3.11603C13.9713 3.56067 15.1145 3.81213 16.4159 3.88476C16.9065 3.91208 17.2965 4.3172 17.3037 4.807C17.3072 5.04199 17.3133 5.25469 17.3224 5.45641C17.3673 7.82243 17.417 10.5034 16.5146 12.9501Z"
        fill="#219653" />
      <path
        d="M10 5.01611C7.25159 5.01611 5.01572 7.25214 5.01572 10.0004C5.01572 12.7488 7.25159 14.9848 10 14.9848C12.7483 14.9848 14.9843 12.7488 14.9843 10.0004C14.9843 7.25214 12.7483 5.01611 10 5.01611ZM10 13.8111C7.89872 13.8111 6.18927 12.1017 6.18927 10.0004C6.18927 7.89911 7.89872 6.18967 10 6.18967C12.1011 6.18967 13.8106 7.89911 13.8106 10.0004C13.8106 12.1017 12.1011 13.8111 10 13.8111Z"
        fill="#219653" />
      <path
        d="M11.4325 8.45289L9.11741 10.768L8.48905 10.1396C8.25986 9.91041 7.88831 9.91041 7.65913 10.1396C7.43009 10.3688 7.43009 10.7403 7.65913 10.9694L8.70252 12.0128C8.81712 12.1274 8.96726 12.1846 9.11741 12.1846C9.26756 12.1846 9.4177 12.1274 9.5323 12.0128L12.2624 9.28266C12.4914 9.05347 12.4914 8.68192 12.2624 8.45289C12.0332 8.22355 11.6617 8.22355 11.4325 8.45289Z"
        fill="#219653" />
    </g>
    <defs>
      <clipPath id="clip0">
        <rect width="20" height="20" fill="white" />
      </clipPath>
    </defs>
  </symbol>
  <symbol id="delivery" width="20" height="20" viewBox="0 0 20 20" fill="none" xmlns="http://www.w3.org/2000/svg">
    <path
      d="M16.6667 11.011V4.58332C16.6667 4.50465 16.6391 4.43527 16.6012 4.3725L16.6073 4.36891L14.1073 0.202227C14.032 0.0769141 13.8965 0 13.75 0H2.91668C2.7702 0 2.63469 0.0769141 2.55941 0.202227L0.0594141 4.36891L0.0654688 4.3725C0.0276172 4.43527 0 4.50465 0 4.58332V16.25C0 16.4803 0.186367 16.6667 0.41668 16.6667H11.011C11.557 18.5875 13.3232 20 15.4167 20C17.9439 20 20 17.9439 20 15.4167C20 13.3232 18.5875 11.557 16.6667 11.011ZM13.514 0.83332L15.5141 4.16664H10.7582L10.0916 0.83332H13.514ZM7.42488 0.83332H9.24246L9.91582 4.16664H6.7582L7.42488 0.83332ZM10 5V6.66668H6.66543L6.65969 5H10ZM3.15266 0.83332H6.57605L5.91586 4.16664H1.15262L3.15266 0.83332ZM10.8545 15.8333H0.83332V5H5.83332V7.08332C5.83332 7.31363 6.01969 7.5 6.25 7.5H10.4167C10.647 7.5 10.8334 7.31363 10.8334 7.08332L10.8268 5H15.8333V10.8545C15.6959 10.842 15.5573 10.8334 15.4166 10.8334C12.8894 10.8334 10.8333 12.8894 10.8333 15.4167C10.8333 15.5573 10.842 15.6959 10.8545 15.8333ZM15.4167 19.1667C13.3488 19.1667 11.6667 17.4845 11.6667 15.4167C11.6667 13.3488 13.3488 11.6667 15.4167 11.6667C17.4845 11.6667 19.1667 13.3488 19.1667 15.4167C19.1667 17.4845 17.4845 19.1667 15.4167 19.1667Z"
      fill="#219653" />
    <path
      d="M17.2054 13.8721L14.5834 16.4942L13.628 15.5388C13.4652 15.376 13.2015 15.376 13.0388 15.5388C12.876 15.7015 12.876 15.9652 13.0388 16.1279L14.2888 17.3779C14.3702 17.4593 14.4768 17.5 14.5834 17.5C14.69 17.5 14.7966 17.4593 14.878 17.3779L17.7947 14.4613C17.9575 14.2985 17.9575 14.0348 17.7947 13.8721C17.6319 13.7093 17.3682 13.7093 17.2054 13.8721Z"
      fill="#219653" />
  </symbol>
  <symbol id="payments" width="20" height="20" viewBox="0 0 20 20" fill="none" xmlns="http://www.w3.org/2000/svg">
    <g clip-path="url(#clip0)">
      <path
        d="M18.9993 13.2046H17.08L16.5413 17.2693C16.4642 17.815 15.963 18.1977 15.4162 18.1282L0.868834 16.2003C0.605199 16.1649 0.366457 16.0261 0.205391 15.8143C0.0436164 15.604 -0.0270141 15.3376 0.0092601 15.0748L1.23675 5.81765C1.30196 5.3191 1.72695 4.94635 2.22974 4.94673C2.27281 4.94681 2.3158 4.94973 2.35849 4.9554L3.32214 5.08249V2.86434C3.32214 2.31168 3.77014 1.86367 4.3228 1.86367H18.9993C19.5519 1.86367 19.9999 2.31168 19.9999 2.86434V12.2039C19.9999 12.7566 19.5519 13.2046 18.9993 13.2046ZM16.4072 13.2046H13.8025L16.3622 13.5438L16.4072 13.2046ZM0.669701 15.1649C0.657985 15.252 0.681751 15.3401 0.735745 15.4094C0.789406 15.4807 0.869417 15.5276 0.957893 15.5395L15.5026 17.4668C15.6855 17.49 15.8533 17.3624 15.8799 17.1799L16.0116 16.1866L0.801455 14.1696L0.669701 15.1649ZM3.32214 5.75527L2.27277 5.61684C2.09015 5.59258 1.92245 5.72095 1.89819 5.90358C1.89819 5.90362 1.89819 5.90366 1.89819 5.9037L1.15402 11.5268L3.32214 11.8133V5.75527ZM3.36617 12.4918L1.06463 12.1882L0.889514 13.5078L16.0997 15.5251L16.1997 14.7606L16.2738 14.2053L8.72574 13.2046H4.3228C3.88168 13.2038 3.49308 12.9143 3.36617 12.4918ZM19.3328 2.86434C19.3328 2.68013 19.1835 2.53078 18.9993 2.53078H4.3228C4.1386 2.53078 3.98925 2.68013 3.98925 2.86434V12.1939C3.98925 12.1972 3.99092 12.2006 3.99092 12.2039C3.99092 12.3881 4.14027 12.5375 4.32447 12.5375H18.9993C19.1835 12.5375 19.3328 12.3881 19.3328 12.2039V2.86434Z"
        fill="#219653" />
      <path
        d="M14.6451 8.19354C14.7792 8.29253 14.8977 8.41102 14.9966 8.54511C15.545 7.80691 16.5881 7.65306 17.3263 8.20151C18.0645 8.74992 18.2183 9.79295 17.6699 10.5312C17.3552 10.9547 16.8585 11.204 16.3309 11.2033C15.8038 11.2018 15.3088 10.9504 14.9966 10.5258C14.4497 11.2669 13.4055 11.4243 12.6644 10.8774C11.9233 10.3304 11.7659 9.28628 12.3128 8.54511C12.8598 7.80403 13.904 7.64659 14.6451 8.19354ZM16.3309 10.5362C16.8835 10.5362 17.3315 10.0881 17.3315 9.53549C17.3315 8.98282 16.8835 8.53482 16.3309 8.53482C15.7782 8.53482 15.3302 8.98282 15.3302 9.53549C15.3302 10.0881 15.7782 10.5362 16.3309 10.5362ZM13.6624 10.5362C14.2151 10.5362 14.6631 10.0881 14.6631 9.53549C14.6631 8.98282 14.2151 8.53482 13.6624 8.53482C13.1098 8.53482 12.6617 8.98282 12.6617 9.53549C12.6617 10.0881 13.1098 10.5362 13.6624 10.5362Z"
        fill="#219653" />
      <path d="M5.99069 10.8698H5.32358V10.2026H5.99069V10.8698Z" fill="#219653" />
      <path d="M10.6605 10.8698H6.65781V10.2026H10.6605V10.8698Z" fill="#219653" />
      <path d="M10.6605 9.53552H5.32358V8.86839H10.6605V9.53552Z" fill="#219653" />
      <path
        d="M17.6652 6.53345H5.65714C5.47293 6.53345 5.32358 6.3841 5.32358 6.19989V4.19855C5.32358 4.01434 5.47293 3.865 5.65714 3.865H17.6652C17.8494 3.865 17.9987 4.01434 17.9987 4.19855V6.19989C17.9987 6.3841 17.8494 6.53345 17.6652 6.53345ZM17.3316 4.53211H5.99069V5.86633H17.3316V4.53211Z"
        fill="#219653" />
    </g>
    <defs>
      <clipPath id="clip0">
        <rect width="20" height="20" fill="white" transform="matrix(1 0 0 -1 0 20)" />
      </clipPath>
    </defs>
  </symbol>
  <symbol id="facebook" width="12" height="24" viewBox="0 0 12 24" fill="none" xmlns="http://www.w3.org/2000/svg">
    <path
      d="M7.5 8.25V5.25C7.5 4.42031 8.17031 3.75 9 3.75H10.5V0H7.5C5.01562 0 3 2.01562 3 4.5V8.25H0V12H3V24H7.5V12H10.5L12 8.25H7.5Z"
      fill="#DDE8F0" />
  </symbol>
  <symbol id="instagram" width="22" height="22" viewBox="0 0 22 22" fill="none" xmlns="http://www.w3.org/2000/svg">
    <path
      d="M21.4436 3.0842C21.2247 2.50021 20.8872 1.97097 20.4403 1.5421C20.0116 1.09498 19.4826 0.757362 18.8988 0.538366C18.4245 0.355869 17.7131 0.136873 16.4088 0.0729988C14.995 0.0182497 14.5755 0 10.9909 0C7.41542 0 6.98673 0.00912484 5.57297 0.0821236C4.26866 0.136873 3.55721 0.355869 3.08292 0.538366C2.49917 0.757362 1.97015 1.09498 1.54146 1.5421C1.09453 1.97097 0.757048 2.50021 0.538143 3.0842C0.355721 3.55869 0.136816 4.27043 0.0729685 5.57528C0.0182421 6.98963 0 7.4185 0 10.9954C0 14.5815 0.0182421 15.0012 0.0820896 16.4156C0.145937 17.7204 0.355721 18.4322 0.547264 18.9067C0.766169 19.4907 1.10365 20.0199 1.55058 20.4488C1.97927 20.8959 2.50829 21.2335 3.09204 21.4525C3.56633 21.635 4.27778 21.854 5.58209 21.9179C6.99585 21.9817 7.41542 22 11 22C14.5846 22 15.0041 21.9909 16.4179 21.9179C17.7222 21.854 18.4337 21.6441 18.908 21.4525C20.0755 21.0054 21.0058 20.0747 21.4527 18.9067C21.6352 18.4322 21.8541 17.7204 21.9179 16.4156C21.9818 15.0012 22 14.5724 22 10.9954C22 7.40937 21.9909 6.98963 21.9179 5.57528C21.8449 4.27043 21.626 3.55869 21.4436 3.0842ZM10.9909 17.8847C7.1874 17.8847 4.10448 14.8005 4.10448 10.9954C4.10448 7.19038 7.1874 4.10618 10.9909 4.10618C14.7944 4.10618 17.8773 7.19038 17.8773 10.9954C17.8773 14.8005 14.7944 17.8847 10.9909 17.8847ZM18.1509 5.44753C17.2662 5.44753 16.5456 4.72667 16.5456 3.84156C16.5456 2.95645 17.2662 2.23559 18.1509 2.23559C19.0357 2.23559 19.7562 2.95645 19.7562 3.84156C19.7562 4.72667 19.0357 5.44753 18.1509 5.44753Z"
      fill="#DDE8F0" />
  </symbol>
  <symbol id="twitter" width="22" height="18" viewBox="0 0 22 18" fill="none" xmlns="http://www.w3.org/2000/svg">
    <path
      d="M22 2.11647C21.1905 2.47545 20.3206 2.71807 19.4076 2.82719C20.3396 2.26856 21.0552 1.38402 21.3922 0.330093C20.5201 0.847281 19.5542 1.22292 18.5261 1.42539C17.7027 0.548169 16.5297 0 15.2315 0C12.7387 0 10.7178 2.02087 10.7178 4.51346C10.7178 4.86722 10.7578 5.21171 10.8347 5.54205C7.08347 5.35382 3.75768 3.5569 1.53153 0.826197C1.14301 1.49282 0.920429 2.26816 0.920429 3.09532C0.920429 4.66121 1.71733 6.04274 2.92842 6.85212C2.18849 6.8287 1.49258 6.62567 0.883975 6.28761C0.883653 6.30644 0.883653 6.32535 0.883653 6.34434C0.883653 8.53123 2.43948 10.3555 4.50429 10.7701C4.12551 10.8733 3.72678 10.9284 3.31509 10.9284C3.02427 10.9284 2.74149 10.9001 2.46596 10.8474C3.04028 12.6406 4.70716 13.9456 6.68224 13.982C5.13752 15.1925 3.19132 15.9141 1.0767 15.9141C0.712411 15.9141 0.353107 15.8928 0 15.8511C1.99745 17.1317 4.36998 17.8789 6.91891 17.8789C15.221 17.8789 19.7608 11.0013 19.7608 5.03685C19.7608 4.84114 19.7565 4.64648 19.7478 4.45295C20.6296 3.81658 21.3949 3.02161 22 2.11647Z"
      fill="#DDE8F0" />
  </symbol>
  <symbol id="youtube" width="26" height="18" viewBox="0 0 26 18" fill="none" xmlns="http://www.w3.org/2000/svg">
    <path
      d="M24.895 1.7225C24.1898 0.468 23.4244 0.23725 21.866 0.1495C20.3093 0.043875 16.3946 0 13.0033 0C9.60538 0 5.68913 0.0438751 4.134 0.147875C2.57887 0.23725 1.81187 0.466375 1.10012 1.7225C0.37375 2.97537 0 5.13338 0 8.93263C0 8.93588 0 8.9375 0 8.9375C0 8.94075 0 8.94238 0 8.94238V8.94563C0 12.7286 0.37375 14.9029 1.10012 16.1427C1.81187 17.3972 2.57725 17.6248 4.13237 17.7304C5.68913 17.8214 9.60538 17.875 13.0033 17.875C16.3946 17.875 20.3092 17.8214 21.8676 17.732C23.426 17.6264 24.1914 17.3989 24.8966 16.1444C25.6295 14.9045 26 12.7302 26 8.94725C26 8.94725 26 8.94238 26 8.93913V8.93425C26 5.13338 25.6295 2.97537 24.895 1.7225ZM9.75 13.8125V4.0625L17.875 8.9375L9.75 13.8125Z"
      fill="#DDE8F0" />
  </symbol>
  <symbol id="nova-poshta" width="84" height="30" viewBox="0 0 84 30" fill="none" xmlns="http://www.w3.org/2000/svg">
    <g clip-path="url(#clip0)">
      <g>
        <path fill-rule="evenodd" clip-rule="evenodd"
          d="M36.6489 5.08917C36.6489 5.08917 36.6489 5.08917 38.4098 5.08917C39.0514 5.08917 39.3747 5.40724 39.3747 6.12532C39.3747 6.12532 39.3747 6.12532 39.3747 8.66989C39.3747 8.66989 39.3747 8.66989 42.8242 8.66989C42.8242 8.66989 42.8242 8.6699 42.8242 6.12532C42.8242 5.40724 43.1426 5.08917 43.8662 5.08917C43.8662 5.08917 43.8662 5.08917 45.55 5.08917C45.55 5.08917 45.55 5.08917 45.55 6.76146C45.55 6.76146 45.55 6.76146 44.8311 6.76146L44.7491 6.84339C44.7491 6.84339 44.7491 6.84339 44.7491 14.0048C44.7491 14.0048 44.7491 14.0048 42.8242 14.0048C42.8242 14.0048 42.8242 14.0048 42.8242 10.4241C42.8242 10.4241 42.8242 10.4241 39.3747 10.4241C39.3747 10.4241 39.3747 10.4241 39.3747 14.0048C39.3747 14.0048 39.3747 14.0048 37.4497 14.0048C37.4497 14.0048 37.4497 14.0048 37.4497 6.84339C37.4497 6.84339 37.4497 6.76146 37.3677 6.76146C37.3677 6.76146 37.3677 6.76146 36.6489 6.76146C36.6489 6.76146 36.6489 6.76146 36.6489 5.08917Z"
          fill="white" />
        <path fill-rule="evenodd" clip-rule="evenodd"
          d="M50.6011 4.93011L50.6446 4.93493V6.77108L50.6011 6.76144C49.1586 6.76144 48.0345 7.95662 48.0345 9.46987C48.0345 11.0602 49.1586 12.3325 50.6011 12.3325L50.6446 12.3229V14.159L50.6011 14.1638C48.0345 14.1638 45.9504 12.0964 45.9504 9.46987C45.9504 6.92048 48.0345 4.93011 50.6011 4.93011Z"
          fill="white" />
        <path fill-rule="evenodd" clip-rule="evenodd"
          d="M50.6447 4.93491L51.5372 5.02166C53.6552 5.43611 55.2521 7.23852 55.2521 9.46985C55.2521 11.7638 53.6552 13.6385 51.5372 14.0674L50.6447 14.159V12.3229L51.6241 12.1108C52.5697 11.6771 53.2499 10.6602 53.2499 9.46985C53.2499 8.3325 52.5697 7.37828 51.6241 6.97346L50.6447 6.77105V4.93491Z"
          fill="white" />
        <path fill-rule="evenodd" clip-rule="evenodd"
          d="M55.6523 5.08917C55.6523 5.08917 55.6523 5.08917 58.3395 5.08917H59.6228V6.76146H59.5022C59.343 6.76146 59.0198 6.76146 58.3781 6.76146C58.3781 6.76146 58.3781 6.76146 58.3781 8.59279C58.3781 8.59279 58.3781 8.59279 58.9233 8.59279H59.6228V10.1831H59.2127C59.0101 10.1831 58.7399 10.1831 58.3781 10.1831C58.3781 10.1831 58.3781 10.1831 58.3781 12.1735C58.3781 12.2554 58.3781 12.2554 58.4601 12.2554C58.4601 12.2554 58.4601 12.2554 59.0342 12.2554H59.6228V14.0048H59.454C59.1645 14.0048 58.5807 14.0048 57.418 14.0048C56.7764 14.0048 56.458 13.6868 56.458 12.9687V6.76146C56.458 6.76146 56.458 6.76146 55.6523 6.76146C55.6523 6.76146 55.6523 6.76146 55.6523 5.08917Z"
          fill="white" />
        <path fill-rule="evenodd" clip-rule="evenodd"
          d="M59.623 5.08917H59.6616C61.4274 5.08917 62.4695 6.04339 62.4695 7.47954C62.4695 8.35182 62.069 8.91086 61.6686 9.31086C62.3923 9.62893 62.8699 10.4241 62.8699 11.2964C62.8699 12.9687 61.5866 14.0048 59.7437 14.0048C59.7437 14.0048 59.7437 14.0048 59.7099 14.0048H59.623V12.2554H59.8208C60.4625 12.2554 60.8678 11.8554 60.8678 11.2193C60.8678 10.5831 60.4625 10.1831 59.8208 10.1831C59.8208 10.1831 59.8208 10.1831 59.6423 10.1831H59.623V8.59279H59.6616C60.2261 8.59279 60.5445 8.19279 60.5445 7.63857C60.5445 7.07954 60.2261 6.76146 59.6616 6.76146C59.6616 6.76146 59.6616 6.76146 59.6423 6.76146H59.623V5.08917Z"
          fill="white" />
        <path fill-rule="evenodd" clip-rule="evenodd"
          d="M66.5604 5.08917C66.5604 5.08917 66.5604 5.08917 67.3709 5.08917H67.5205V7.63857C67.4433 7.79761 67.3613 8.03375 67.3613 8.27472C67.3613 8.27472 67.3613 8.27472 66.7196 10.106C66.7196 10.106 66.7196 10.106 67.3999 10.106H67.5205V11.7735H67.0863C66.8402 11.7735 66.5604 11.7735 66.242 11.7735C66.242 11.7735 66.242 11.7735 65.6776 13.2097C65.5183 13.7639 65.1999 14.0048 64.5583 14.0048C64.5583 14.0048 64.5583 14.0048 63.3522 14.0048C63.3522 14.0048 63.3522 14.0048 63.3522 12.2554C63.3522 12.2554 63.3522 12.2554 63.7526 12.2554C63.9166 12.2554 63.9166 12.2554 63.9938 12.1735C63.9938 12.1735 63.9938 12.1735 66.5604 5.08917Z"
          fill="white" />
        <path fill-rule="evenodd" clip-rule="evenodd"
          d="M67.5203 5.08917H68.4852C68.4852 5.08917 68.4852 5.08917 71.0518 12.1735C71.129 12.2554 71.129 12.2554 71.2882 12.2554C71.2882 12.2554 71.2882 12.2554 71.6115 12.2554C71.6115 12.2554 71.6115 12.2554 71.6115 14.0048C71.6115 14.0048 71.6115 14.0048 70.4874 14.0048C69.8457 14.0048 69.5273 13.7639 69.3633 13.1277C69.3633 13.1277 69.3633 13.1277 68.8036 11.7735C68.8036 11.7735 68.8036 11.7735 67.723 11.7735H67.5203V10.106H68.3212C68.3212 10.106 68.3212 10.106 67.6844 8.27472C67.6844 8.03375 67.6023 7.79761 67.5203 7.63857V5.08917Z"
          fill="white" />
        <path fill-rule="evenodd" clip-rule="evenodd"
          d="M36.6489 16.5494C36.6489 16.5494 36.6489 16.5494 43.625 16.5494C44.2667 16.5494 44.6671 16.8675 44.6671 17.5856C44.6671 17.5856 44.6671 17.5856 44.6671 23.6337C44.6671 23.7109 44.6671 23.7109 44.7491 23.7109C44.7491 23.7109 44.7491 23.7109 45.3908 23.7109C45.3908 23.7109 45.3908 23.7109 45.3908 25.4651C45.3908 25.4651 45.3908 25.4651 43.707 25.4651C42.9834 25.4651 42.6649 25.147 42.6649 24.4289C42.6649 24.4289 42.6649 24.4289 42.6649 18.3036C42.6649 18.3036 42.6649 18.2217 42.5829 18.2217C42.5829 18.2217 42.5829 18.2217 39.3747 18.2217C39.3747 18.2217 39.3747 18.2217 39.3747 25.4651C39.3747 25.4651 39.3747 25.4651 37.4497 25.4651C37.4497 25.4651 37.4497 25.4651 37.4497 18.2217C37.4497 18.2217 37.4497 18.2217 36.6489 18.2217C36.6489 18.2217 36.6489 18.2217 36.6489 16.5494Z"
          fill="white" />
        <path fill-rule="evenodd" clip-rule="evenodd"
          d="M50.4421 16.3904L50.4807 16.3952V18.2314L50.4421 18.2217C48.9948 18.2217 47.8755 19.4169 47.8755 20.9302C47.8755 22.5205 48.9948 23.7928 50.4421 23.7928L50.4807 23.7832V25.6193L50.4421 25.6241C47.8755 25.6241 45.8685 23.5519 45.8685 20.9302C45.8685 18.3808 47.8755 16.3904 50.4421 16.3904Z"
          fill="white" />
        <path fill-rule="evenodd" clip-rule="evenodd"
          d="M50.4805 16.3951L51.4019 16.4819C53.5585 16.8963 55.0926 18.6988 55.0926 20.9301C55.0926 23.2241 53.5585 25.0988 51.4019 25.5277L50.4805 25.6192V23.7831L51.4984 23.571C52.4585 23.1373 53.0905 22.1204 53.0905 20.9301C53.0905 19.7927 52.4585 18.8385 51.4984 18.4337L50.4805 18.2313V16.3951Z"
          fill="white" />
        <path fill-rule="evenodd" clip-rule="evenodd"
          d="M55.4931 16.5494C55.4931 16.5494 55.4931 16.5494 57.2589 16.5494C57.9005 16.5494 58.2189 16.8675 58.2189 17.5856C58.2189 17.5856 58.2189 17.5856 58.2189 23.6337C58.2189 23.7109 58.2189 23.7109 58.3009 23.7109C58.3009 23.7109 58.3009 23.7109 60.6263 23.7109C60.6263 23.7109 60.6263 23.7109 60.6263 16.5494C60.6263 16.5494 60.6263 16.5494 62.5513 16.5494C62.5513 16.5494 62.5513 16.5494 62.5513 23.7109C62.5513 23.7109 62.5513 23.7109 64.8766 23.7109C64.9587 23.7109 64.9587 23.7109 64.9587 23.6337C64.9587 23.6337 64.9587 23.6337 64.9587 17.5856C64.9587 16.8675 65.2771 16.5494 65.9187 16.5494C65.9187 16.5494 65.9187 16.5494 67.6845 16.5494C67.6845 16.5494 67.6845 16.5494 67.6845 18.2217C67.6845 18.2217 67.6845 18.2217 66.9608 18.2217C66.8788 18.2217 66.8788 18.3036 66.8788 18.3036C66.8788 18.3036 66.8788 18.3036 66.8788 24.4289C66.8788 25.147 66.5604 25.4651 65.9187 25.4651C65.9187 25.4651 65.9187 25.4651 57.336 25.4651C56.6172 25.4651 56.294 25.147 56.294 24.4289C56.294 24.4289 56.294 24.4289 56.294 18.3036C56.294 18.3036 56.294 18.2217 56.2168 18.2217C56.2168 18.2217 56.2168 18.2217 55.4931 18.2217C55.4931 18.2217 55.4931 18.2217 55.4931 16.5494Z"
          fill="white" />
        <path fill-rule="evenodd" clip-rule="evenodd"
          d="M69.2039 16.5494C69.2039 16.5494 69.2039 16.5494 75.22 16.5494C75.9437 16.5494 76.1849 16.8675 76.1849 17.5036C76.1849 17.5036 76.1849 17.5036 76.1849 19.0169H74.4191C74.4191 19.0169 74.4191 19.0169 74.4191 18.3036C74.4191 18.2217 74.4191 18.2217 74.3371 18.2217C74.3371 18.2217 74.3371 18.2217 73.2179 18.2217C73.2179 18.2217 73.2179 18.2217 73.2179 25.4651C73.2179 25.4651 73.2179 25.4651 71.2881 25.4651C71.2881 25.4651 71.2881 25.4651 71.2881 18.2217C71.2881 18.2217 71.2881 18.2217 70.1688 18.2217C70.0868 18.2217 70.0868 18.2217 70.0868 18.3036C70.0868 18.3036 70.0868 18.3036 70.0868 19.0169C70.0868 19.0169 70.0868 19.0169 68.321 19.0169C68.321 19.0169 68.321 19.0169 68.321 17.5036C68.321 16.8675 68.5623 16.5494 69.2039 16.5494Z"
          fill="white" />
        <path fill-rule="evenodd" clip-rule="evenodd"
          d="M78.6699 16.5494C78.6699 16.5494 78.6699 16.5494 79.4804 16.5494H79.63V19.0988C79.548 19.2578 79.4708 19.494 79.4708 19.735C79.4708 19.735 79.4708 19.735 78.8291 21.5663C78.8291 21.5663 78.8291 21.5663 79.5045 21.5663H79.63V23.2337H79.1958C78.9497 23.2337 78.6699 23.2337 78.3467 23.2337C78.3467 23.2337 78.3467 23.2337 77.787 24.588C77.6278 25.2241 77.3046 25.4651 76.663 25.4651C76.663 25.4651 76.663 25.4651 75.4617 25.4651C75.4617 25.4651 75.4617 25.4651 75.4617 23.7109C75.4617 23.7109 75.4617 23.7109 75.8621 23.7109C76.0261 23.7109 76.0261 23.7109 76.1033 23.6337C76.1033 23.6337 76.1033 23.6337 78.6699 16.5494Z"
          fill="white" />
        <path fill-rule="evenodd" clip-rule="evenodd"
          d="M79.6297 16.5494H80.5898C80.5898 16.5494 80.5898 16.5494 83.1612 23.6337C83.2384 23.7109 83.2384 23.7109 83.4024 23.7109H83.7208C83.7208 23.7109 83.7208 23.7109 83.7208 25.4651C83.7208 25.4651 83.7208 25.4651 82.5967 25.4651C81.9551 25.4651 81.6367 25.2241 81.4726 24.588C81.4726 24.588 81.4726 24.588 80.913 23.2337C80.913 23.2337 80.913 23.2337 79.8323 23.2337H79.6297V21.5663H80.4306C80.4306 21.5663 80.4306 21.5663 79.7889 19.735C79.7889 19.494 79.7117 19.2578 79.6297 19.0988V16.5494Z"
          fill="white" />
        <path fill-rule="evenodd" clip-rule="evenodd"
          d="M24.2887 8.88189C24.3804 8.85297 24.501 8.91081 24.6216 9.06984C24.6216 9.06984 24.6216 9.06984 30.0732 14.4C30.3916 14.718 30.3916 15.2 30.0732 15.4361C30.0732 15.4361 30.0732 15.4361 24.6216 20.8482C24.501 21.0072 24.3804 21.0457 24.2887 20.9976C24.1971 20.9494 24.1392 20.8096 24.1392 20.6072V9.22888C24.1392 9.03129 24.1971 8.9108 24.2887 8.88189Z"
          fill="white" />
        <path fill-rule="evenodd" clip-rule="evenodd"
          d="M14.9629 0H15.3489L15.7203 0.154217C15.7203 0.154217 15.7203 0.154217 21.3312 5.7253C21.5724 6.04337 21.4904 6.28434 21.0899 6.28434C21.0899 6.28434 21.0899 6.28434 18.7646 6.28434C18.3641 6.28434 18.0457 6.60241 18.0457 7.00241C18.0457 7.00241 18.0457 7.00241 18.0457 11.1373C18.0457 11.5373 17.7225 11.8554 17.24 11.8554C17.24 11.8554 17.24 11.8554 13.1537 11.8554C12.7533 11.8554 12.4301 11.5373 12.4301 11.1373C12.4301 11.1373 12.4301 11.1373 12.4301 7.00241C12.4301 6.60241 12.1117 6.28434 11.7064 6.28434H9.22182C8.82139 6.28434 8.73938 6.04337 8.9806 5.7253C8.9806 5.7253 8.9806 5.7253 14.5963 0.154217L14.9629 0Z"
          fill="white" />
        <path fill-rule="evenodd" clip-rule="evenodd"
          d="M6.17287 8.76151C6.27418 8.8097 6.3369 8.94946 6.3369 9.15187V20.7663C6.3369 20.9687 6.27418 21.0892 6.17287 21.1278C6.07638 21.1663 5.93647 21.1278 5.77244 21.0073C5.77244 21.0073 5.77244 21.0073 0.23881 15.4362C-0.0796033 15.2001 -0.0796033 14.7181 0.23881 14.4001C0.23881 14.4001 0.23881 14.4001 5.77244 8.9109C5.93647 8.75187 6.07638 8.71331 6.17287 8.76151Z"
          fill="white" />
        <path fill-rule="evenodd" clip-rule="evenodd"
          d="M13.1535 17.9036C13.1535 17.9036 13.1535 17.9036 17.2398 17.9036C17.7223 17.9036 18.0455 18.2217 18.0455 18.6217C18.0455 18.6217 18.0455 18.6217 18.0455 22.9976C18.0455 23.4747 18.3639 23.7928 18.7644 23.7928H20.9305C21.331 23.7928 21.4902 24.0289 21.1718 24.2699C21.1718 24.2699 21.1718 24.2699 15.7201 29.759C15.5561 29.9181 15.3583 30 15.1557 30C14.9579 30 14.7553 29.9181 14.596 29.759C14.596 29.759 14.596 29.759 9.14443 24.2699C8.82119 24.0289 8.9804 23.7928 9.38083 23.7928C9.38083 23.7928 9.38083 23.7928 11.7062 23.7928C12.1115 23.7928 12.4299 23.4747 12.4299 22.9976C12.4299 22.9976 12.4299 22.9976 12.4299 18.6217C12.4299 18.2217 12.7531 17.9036 13.1535 17.9036Z"
          fill="white" />
      </g>
    </g>
    <defs>
      <clipPath id="clip0">
        <rect width="83.7209" height="30" fill="white" />
      </clipPath>
    </defs>
  </symbol>
  <symbol id="logo" width="117" height="45" viewBox="0 0 117 45" fill="none" xmlns="http://www.w3.org/2000/svg">
    <g clip-path="url(#clip0)">
      <path fill-rule="evenodd" clip-rule="evenodd"
        d="M111.763 2.45297C110.368 1.06629 108.483 0.288208 106.519 0.288208C104.554 0.288208 102.67 1.06629 101.275 2.45297L76.3845 27.7889C74.9665 29.2536 74.1733 31.2144 74.1733 33.2555C74.1733 35.2966 74.9665 37.2575 76.3845 38.7222C77.0757 39.4397 77.904 40.0103 78.8199 40.4C79.7359 40.7898 80.7207 40.9906 81.7157 40.9906C82.7107 40.9906 83.6956 40.7898 84.6115 40.4C85.5274 40.0103 86.3557 39.4397 87.0469 38.7222L111.763 13.4213C113.183 11.9507 113.977 9.98405 113.977 7.93716C113.977 5.89027 113.183 3.92361 111.763 2.45297Z"
        fill="white" />
      <path fill-rule="evenodd" clip-rule="evenodd"
        d="M51.7037 2.45298C52.3974 1.73986 53.2264 1.17312 54.142 0.786168C55.0576 0.399211 56.0412 0.19986 57.0349 0.19986C58.0285 0.19986 59.0121 0.399211 59.9277 0.786168C60.8433 1.17312 61.6723 1.73986 62.366 2.45298L87.0818 27.7889C88.4998 29.2536 89.293 31.2145 89.293 33.2555C89.293 35.2966 88.4998 37.2575 87.0818 38.7222C86.3906 39.4397 85.5623 40.0103 84.6464 40.4C83.7305 40.7898 82.7456 40.9906 81.7506 40.9906C80.7556 40.9906 79.7707 40.7898 78.8548 40.4C77.9389 40.0103 77.1106 39.4397 76.4194 38.7222L51.7037 13.4214C50.2752 11.955 49.4755 9.98673 49.4755 7.93717C49.4755 5.88761 50.2752 3.91934 51.7037 2.45298Z"
        fill="white" />
      <path fill-rule="evenodd" clip-rule="evenodd"
        d="M62.4011 2.45297C61.7099 1.73548 60.8816 1.16487 59.9657 0.775144C59.0497 0.38542 58.0649 0.18457 57.0699 0.18457C56.0748 0.18457 55.09 0.38542 54.1741 0.775144C53.2582 1.16487 52.4299 1.73548 51.7387 2.45297L27.023 27.7889C25.6049 29.2536 24.8118 31.2144 24.8118 33.2555C24.8118 35.2966 25.6049 37.2575 27.023 38.7222C27.7167 39.4353 28.5457 40.0021 29.4613 40.389C30.3769 40.776 31.3605 40.9753 32.3541 40.9753C33.3478 40.9753 34.3314 40.776 35.247 40.389C36.1626 40.0021 36.9916 39.4353 37.6853 38.7222L62.4011 13.3863C63.8191 11.9216 64.6123 9.96073 64.6123 7.91964C64.6123 5.87854 63.8191 3.91771 62.4011 2.45297Z"
        fill="white" />
      <path fill-rule="evenodd" clip-rule="evenodd"
        d="M2.2024 2.27781C2.8961 1.56469 3.72517 0.997954 4.64076 0.610997C5.55636 0.22404 6.53995 0.0246887 7.53359 0.0246887C8.52723 0.0246887 9.51083 0.22404 10.4264 0.610997C11.342 0.997954 12.1711 1.56469 12.8648 2.27781L37.5805 27.6137C38.9986 29.0785 39.7917 31.0393 39.7917 33.0804C39.7917 35.1215 38.9986 37.0823 37.5805 38.547C36.8868 39.2602 36.0577 39.8269 35.1421 40.2139C34.2266 40.6008 33.243 40.8002 32.2493 40.8002C31.2557 40.8002 30.2721 40.6008 29.3565 40.2139C28.4409 39.8269 27.6118 39.2602 26.9181 38.547L2.2024 13.2111C0.78434 11.7464 -0.00878906 9.78557 -0.00878906 7.74448C-0.00878906 5.70338 0.78434 3.74255 2.2024 2.27781Z"
        fill="white" />
    </g>
    <defs>
      <clipPath id="clip0">
        <rect width="114" height="41" fill="white" />
      </clipPath>
    </defs>
  </symbol>
</svg>