<svg>

  <symbol id="card-favourite" width="31" height="24" viewBox="0 0 31 24" fill="none" xmlns="http://www.w3.org/2000/svg">
    <path
      d="M29.537 4.82626C28.5464 2.14006 26.1751 0.38253 23.3492 0.238682C23.338 0.238389 23.3275 0.238037 23.3166 0.238037H22.9019C19.3342 0.238037 16.2697 2.43485 14.9901 5.54661C13.7104 2.43485 10.6459 0.238037 7.0782 0.238037H6.66347C6.65263 0.238037 6.64179 0.23833 6.63095 0.238682C3.8114 0.382237 1.44741 2.14106 0.46227 4.82913C-0.554809 7.60433 0.138478 10.5707 2.26926 12.5697L13.4786 23.1719C13.916 23.5656 14.4692 23.7621 15.0182 23.7621C15.5727 23.7621 16.1226 23.5618 16.5444 23.162L18.2486 21.5538C18.6764 21.126 18.9186 20.562 18.9301 19.9663C18.9415 19.3573 18.7112 18.7846 18.2805 18.3543C18.0314 18.1051 17.6275 18.1051 17.3783 18.3543C17.1292 18.6034 17.1292 19.0073 17.3783 19.2565C17.7602 19.6387 17.7464 20.2512 17.3598 20.6382L15.668 22.2343C15.3059 22.5766 14.7189 22.5715 14.3437 22.234L3.14401 11.6404C1.39099 9.99579 0.8228 7.55429 1.66052 5.26812C2.46449 3.07388 4.38691 1.63633 6.68005 1.51381H7.0782C11.089 1.51381 14.352 4.7768 14.352 8.78758C14.352 9.13979 14.6378 9.42561 14.99 9.42561C15.3422 9.42561 15.628 9.13979 15.628 8.78758C15.628 4.7768 18.891 1.51381 22.9018 1.51381H23.2999C25.6004 1.63697 27.5306 3.07417 28.3396 5.26776C29.1796 7.54561 28.6149 9.98805 26.8532 11.6546L23.2801 15.2277C22.8511 15.6568 22.6146 16.219 22.6146 16.8114C22.6146 17.4038 22.851 17.9659 23.2801 18.395C23.5293 18.6441 23.9332 18.6441 24.1824 18.395C24.4315 18.1458 24.4315 17.7419 24.1824 17.4927C23.9942 17.3045 23.8908 17.0627 23.8908 16.8113C23.8908 16.5599 23.9942 16.3181 24.1824 16.1298L27.7427 12.5692C29.8695 10.5582 30.5567 7.59126 29.537 4.82626Z"
      fill="#33485D" />
  </symbol>

  <symbol id="white" width="30" height="24" viewBox="0 0 30 24" fill="none" xmlns="http://www.w3.org/2000/svg">
    <path d="M29.5358 4.58822C28.5452 1.90203 26.1739 0.144493 23.3479 0.000644406C23.3368 0.000351435 23.3263 0 23.3154 0H22.9007C19.333 0 16.2685 2.19681 14.9888 5.30858C13.7092 2.19681 10.6447 0 7.07698 0H6.66225C6.65141 0 6.64057 0.000292841 6.62973 0.000644406C3.81018 0.1442 1.44619 1.90302 0.461049 4.59109C-0.556029 7.36629 0.137257 10.3326 2.26804 12.3316L13.4773 22.9338C13.9147 23.3275 14.4679 23.5241 15.017 23.5241C15.5714 23.5241 16.1214 23.3237 16.5432 22.924L18.2474 21.3158C18.6752 20.888 18.9173 20.3239 18.9288 19.7283C18.9403 19.1192 18.71 18.5466 18.2793 18.1162C18.0302 17.8671 17.6263 17.8671 17.3771 18.1162C17.1279 18.3654 17.1279 18.7692 17.3771 19.0184C17.7589 19.4007 17.7452 20.0132 17.3586 20.4002L15.6668 21.9963C15.3047 22.3386 14.7177 22.3335 14.3425 21.996L3.14279 11.4023C1.38977 9.75775 0.821579 7.31625 1.6593 5.03008C2.46327 2.83584 4.38569 1.39829 6.67883 1.27577H7.07698C11.0878 1.27577 14.3507 4.53877 14.3507 8.54954C14.3507 8.90175 14.6366 9.18757 14.9888 9.18757C15.341 9.18757 15.6268 8.90175 15.6268 8.54954C15.6268 4.53877 18.8898 1.27577 22.9006 1.27577H23.2987C25.5992 1.39894 27.5293 2.83614 28.3384 5.02973C29.1784 7.30758 28.6137 9.75002 26.852 11.4166L23.2789 14.9897C22.8498 15.4188 22.6134 15.9809 22.6134 16.5733C22.6134 17.1658 22.8498 17.7279 23.2789 18.1569C23.5281 18.4061 23.932 18.4061 24.1812 18.1569C24.4303 17.9078 24.4303 17.5039 24.1812 17.2547C23.993 17.0665 23.8896 16.8247 23.8896 16.5733C23.8896 16.3218 23.993 16.0801 24.1812 15.8918L27.7415 12.3312C29.8683 10.3202 30.5554 7.35322 29.5358 4.58822Z" fill="white"/>
  </symbol>


  <symbol id="star" width="16" height="14" viewBox="0 0 16 14" fill="none" xmlns="http://www.w3.org/2000/svg">
    <path
      d="M3.59246 13.9993C3.53761 13.9993 3.48275 13.9825 3.43665 13.9491C3.35504 13.8902 3.31424 13.7905 3.33146 13.6919L4.1505 8.95331L0.681721 5.59779C0.609648 5.52783 0.583687 5.42343 0.614689 5.32849C0.645956 5.23328 0.728882 5.16385 0.828777 5.14939L5.62217 4.45798L7.76609 0.146749C7.8106 0.0568061 7.90282 0 8.00351 0C8.10446 0 8.19667 0.0568061 8.24092 0.146749L10.3846 4.45798L15.1783 5.14939C15.2782 5.16385 15.3608 5.23302 15.3924 5.32849C15.4234 5.42343 15.3977 5.5281 15.3253 5.59779L11.8565 8.95383L12.6753 13.6922C12.6922 13.7908 12.6514 13.8905 12.5701 13.9494C12.4885 14.0088 12.3801 14.0164 12.2908 13.9694L8.00351 11.7323L3.71566 13.9694C3.67698 13.9893 3.63459 13.9993 3.59246 13.9993Z"
      fill="#FFA800" />
  </symbol>

  <symbol id="check" width="21" height="20" viewBox="0 0 21 20" fill="none" xmlns="http://www.w3.org/2000/svg">
    <g clip-path="url(#clip0)">
      <path
        d="M10.9652 11.9805L19.1668 2.97832L20.2496 3.96481L11.0404 14.0729L6.01997 9.30038L7.02934 8.23872L10.9652 11.9805ZM19.6808 6.74023L18.5386 7.99793C18.7044 8.63468 18.7927 9.30233 18.7927 9.99023C18.7927 14.3518 15.2441 17.9004 10.8826 17.9004C6.521 17.9004 2.97241 14.3518 2.97241 9.99023C2.97241 5.62866 6.521 2.08008 10.8826 2.08008C12.9031 2.08008 14.7488 2.84203 16.1486 4.09309L17.1361 3.00579C15.4145 1.46072 13.2136 0.615234 10.8826 0.615234C8.37849 0.615234 6.02409 1.59039 4.25346 3.36113C2.48272 5.13176 1.50757 7.48615 1.50757 9.99023C1.50757 12.4943 2.48272 14.8487 4.25346 16.6193C6.02409 18.3901 8.37849 19.3652 10.8826 19.3652C13.3867 19.3652 15.741 18.3901 17.5117 16.6193C19.2824 14.8487 20.2576 12.4943 20.2576 9.99023C20.2576 8.86322 20.0595 7.76688 19.6808 6.74023Z"
        fill="#219653" />
    </g>
    <defs>
      <clipPath id="clip0">
        <rect width="20" height="20" fill="white" transform="translate(0.892334)" />
      </clipPath>
    </defs>
  </symbol>

  <symbol id="check-not-av" width="21" height="20" viewBox="0 0 21 20" fill="none" xmlns="http://www.w3.org/2000/svg">
    <g clip-path="url(#clip0)">
      <path
        d="M10.9652 11.9805L19.1668 2.97832L20.2496 3.96481L11.0404 14.0729L6.01997 9.30038L7.02934 8.23872L10.9652 11.9805ZM19.6808 6.74023L18.5386 7.99793C18.7044 8.63468 18.7927 9.30233 18.7927 9.99023C18.7927 14.3518 15.2441 17.9004 10.8826 17.9004C6.521 17.9004 2.97241 14.3518 2.97241 9.99023C2.97241 5.62866 6.521 2.08008 10.8826 2.08008C12.9031 2.08008 14.7488 2.84203 16.1486 4.09309L17.1361 3.00579C15.4145 1.46072 13.2136 0.615234 10.8826 0.615234C8.37849 0.615234 6.02409 1.59039 4.25346 3.36113C2.48272 5.13176 1.50757 7.48615 1.50757 9.99023C1.50757 12.4943 2.48272 14.8487 4.25346 16.6193C6.02409 18.3901 8.37849 19.3652 10.8826 19.3652C13.3867 19.3652 15.741 18.3901 17.5117 16.6193C19.2824 14.8487 20.2576 12.4943 20.2576 9.99023C20.2576 8.86322 20.0595 7.76688 19.6808 6.74023Z"
        fill="#00000080" />
    </g>
    <defs>
      <clipPath id="clip0">
        <rect width="20" height="20" fill="white" transform="translate(0.892334)" />
      </clipPath>
    </defs>
  </symbol>

  <symbol id="pagination-btn" width="16" height="29" viewBox="0 0 16 29" fill="none" xmlns="http://www.w3.org/2000/svg">
    <path fill-rule="evenodd" clip-rule="evenodd" d="M13.364 0.722029C13.7545 0.331528 14.3877 0.331528 14.7782 0.722029C15.1687 1.11253 15.1687 1.74573 14.7782 2.13623L2.41422 14.5002L14.7782 26.8642C15.1687 27.2547 15.1687 27.8879 14.7782 28.2784C14.3877 28.6689 13.7545 28.6689 13.364 28.2784L0.292898 15.2073C-0.0976235 14.8168 -0.0976235 14.1836 0.292898 13.7931L13.364 0.722029Z" fill="#33485D"/>
  </symbol>

</svg>